<svg width="31" height="31" viewBox="0 0 31 31" fill="none" xmlns="http://www.w3.org/2000/svg">
<path d="M15.5 30.9999C23.9795 30.9999 31 23.9828 31 15.5075C31 7.04746 23.9643 0.0151367 15.4848 0.0151367C7.0206 0.0151367 0 7.04746 0 15.5075C0 23.9828 7.0358 30.9999 15.5 30.9999Z" fill="#1F284E"/>
<path d="M12.2328 8.97649C12.2328 7.16904 13.6765 5.71094 15.4999 5.71094C17.3235 5.71094 18.7672 7.16904 18.7672 8.97649C18.7672 10.465 17.7642 11.7408 16.3965 12.1509V17.4062C16.3965 19.9123 15.9711 21.3096 15.4999 21.3096C15.0441 21.3096 14.6186 19.8972 14.6186 17.4062V12.1509C13.2357 11.7408 12.2328 10.465 12.2328 8.97649ZM14.5882 9.14357C15.1808 9.14357 15.6519 8.65753 15.6519 8.06518C15.6519 7.488 15.1808 7.01716 14.5882 7.01716C14.0563 7.01716 13.5397 7.488 13.5397 8.06518C13.5397 8.65753 14.0563 9.14357 14.5882 9.14357ZM15.4999 24.3778C10.4093 24.3778 7.41565 22.6007 7.41565 20.6717C7.41565 18.3175 11.1387 16.9505 13.494 16.9656V18.4086C11.8681 18.3934 9.33036 19.2592 9.33036 20.4743C9.33036 21.8413 11.8833 22.8285 15.4999 22.8285C19.1015 22.8285 21.6849 21.826 21.6849 20.4743C21.6849 19.2592 19.1318 18.3934 17.5059 18.4086V16.9656C19.8613 16.9505 23.5843 18.3175 23.5843 20.6717C23.5843 22.6007 20.5907 24.3778 15.4999 24.3778Z" fill="white"/>
</svg>
